PathFileType	4	(X/Y/Z)	TRC_missing_Z7.trc
DataRate	CameraRate	NumFrames	NumMarkers	Units	OrigDataRate	OrigDataStartFrame	OrigNumFrames
100.0	100.0	12	37	mm	100.0	1631	2609	
Frame#	Time	T10			C7			CLAV			RACR1			LACR1			RPSI			LPSI			RASI			LASI			LTH2			LTH3			LTH1			RTH2			RTH3			RTH1			RLFC			RMFC			RTB1			RTB3			RTB2			LLFC			LMFC			LTB1			LTB3			LTB2			LLMAL			LCAL			LMMAL			RLMAL			RMMAL			RCAL			RMT5			RMT1			RToe			LMT5			LMT1			LToe			
		X1	Y1	Z1	X2	Y2	Z2	X3	Y3	Z3	X4	Y4	Z4	X5	Y5	Z5	X6	Y6	Z6	X7	Y7	X8	Y8	Z8	X9	Y9	Z9	X10	Y10	Z10	X11	Y11	Z11	X12	Y12	Z12	X13	Y13	Z13	X14	Y14	Z14	X15	Y15	Z15	X16	Y16	Z16	X17	Y17	Z17	X18	Y18	Z18	X19	Y19	Z19	X20	Y20	Z20	X21	Y21	Z21	X22	Y22	Z22	X23	Y23	Z23	X24	Y24	Z24	X25	Y25	Z25	X26	Y26	Z26	X27	Y27	Z27	X28	Y28	Z28	X29	Y29	Z29	X30	Y30	Z30	X31	Y31	Z31	X32	Y32	Z32	X33	Y33	Z33	X34	Y34	Z34	X35	Y35	Z35	X36	Y36	Z36	X37	Y37	Z37	
1631	16.3	704.91425	1229.8276	-463.18484	694.13226	1486.6417	-342.18906	705.62012	1330.8915	-241.84962	536.34393	1430.2429	-314.06042	874.37347	1433.1824	-328.20761	643.3606	1018.3327	-534.43549	731.76624	1020.1696	-533.64178	573.40198	978.4776	-304.53796	827.2793	972.43854	-303.72638	860.4458	698.24243	-343.93079	892.43604	762.18634	-383.60187	852.93304	840.1297	-321.62927	574.37634	720.71002	-257.63272	524.91699	780.08173	-300.09857	592.63538	835.58258	-268.901	569.35663	500.56277	-298.89368				618.32184	389.50174	-268.75473	593.77533	313.85898	-300.80447	619.27631	262.57721	-301.78906	856.89673	491.33313	-444.51843				818.12097	374.58472	-474.67072	840.15167	344.59116	-542.63867	804.77844	296.28922	-566.91632	813.5321	202.20023	-752.80811	755.72333	219.2693	-807.33344				604.61884	75.699913	-379.45401				644.36603	35.489361	-446.4906	609.82104	43.826149	-271.03232	686.97748	51.772846	-250.40842				831.06543	71.343544	-737.21997	766.69122	61.314026	-705.82159			
1632	16.31	703.4519	1230.5668	-462.89572	692.85822	1487.4379	-341.98886	704.77887	1331.8214	-241.68442	535.24774	1431.1066	-313.3678	873.23566	1434.1833	-328.67026	642.23773	1019.222	-533.98639	730.65021	1020.6602	-533.36414	572.3443	979.37048	-303.92581	826.2417	973.34656	-303.44348	861.00024	699.85791	-340.06583	892.11005	762.81287	-381.9541	852.15491	841.70038	-320.26917	573.45831	719.83545	-259.93936	523.99017	779.92017	-301.49689	591.43671	835.11377	-269.39279	568.87128	500.07098	-304.24869				617.95923	388.71951	-275.07837	593.46344	313.20917	-307.54861	619.07526	261.99301	-308.84079	857.25208	491.62509	-435.71313				818.81946	375.01089	-465.65372	840.30878	345.61169	-534.2066	805.04639	297.41797	-558.72034	812.9165	205.0135	-745.51379	754.62732	222.45193	-799.71405				604.59253	75.652649	-387.58762				644.27057	35.632725	-454.73135	609.45184	43.82531	-279.16476	686.8197	51.629593	-258.31088				830.90582	73.977318	-730.94714	766.87506	62.973717	-699.31799			
1633	16.32	702.04419	1231.2583	-462.69031	691.66791	1488.1738	-341.84656	704.01935	1332.6699	-241.59659	534.23413	1431.9202	-312.74423	872.18042	1435.0898	-329.20993	641.19708	1020.0408	-533.66174	729.61279	1021.0978	-533.19299	571.29443	980.19031	-303.45349	825.21429	974.20538	-303.24481	861.7049	701.41956	-336.28143	891.83789	763.47974	-380.24625	851.39642	843.27936	-318.97614	572.57458	718.91168	-262.40741	523.0976	779.68829	-303.07071	590.25732	834.57385	-270.04147	568.42358	499.57413	-309.73459				617.63098	387.96341	-281.48474	593.18732	312.57703	-314.33136	618.92255	261.4303	-315.92468	857.57959	492.01761	-426.74063				819.40778	375.51471	-456.29434	840.40192	346.55826	-525.33014	805.17609	298.45529	-550.02344	812.23486	207.28813	-737.4967	753.52527	224.76671	-791.52155				604.61646	75.629288	-395.69873				644.22516	35.778908	-462.94348	609.10815	43.847992	-287.28723	686.68286	51.504444	-266.18509				830.79828	76.420036	-723.17377	767.099	64.586487	-691.23956			
1634	16.33	700.69226	1231.8956	-462.5675	690.56158	1488.8439	-341.76099	703.34076	1333.4301	-241.58469	533.30212	1432.676	-312.18924	871.20728	1435.8938	-329.8252	640.24164	1020.7826	-533.45929	728.65704	1021.4781	-533.12573	570.25482	980.92865	-303.11963	824.19891	975.00775	-303.12946	862.55682	702.8999	-332.59473	891.60809	764.20715	-378.40878	850.65588	844.85883	-317.75168	571.73602	717.94067	-265.01807	522.24768	779.38416	-304.80399	589.10638	833.9621	-270.83731	568.01764	499.06937	-315.32773				617.34424	387.22781	-287.95914	592.95276	311.95813	-321.14264	618.82397	260.88327	-323.03568	857.86914	492.51785	-417.63974				819.87872	376.10132	-446.6282	840.42902	347.42795	-516.03998	805.16827	299.39252	-540.84534	811.49719	208.98576	-728.77271	752.42688	226.17723	-782.76801				604.6922	75.627304	-403.79794				644.23022	35.92997	-471.1427	608.79584	43.884212	-295.41299	686.57263	51.384342	-274.04492				830.74194	78.615715	-713.92816	767.36096	66.110878	-681.61395			
1635	16.34	699.39703	1232.4735	-462.52527	689.53894	1489.4419	-341.73032	702.74152	1334.0959	-241.64636	532.45074	1433.3674	-311.70135	870.31543	1436.589	-330.51392	639.37329	1021.4427	-533.37604	727.7854	1021.7978	-533.15863	569.22827	981.57782	-302.92145	823.19763	975.74731	-303.0961	863.54224	704.27808	-329.01804	891.40967	765.01392	-376.37802	849.93182	846.43115	-316.59647	570.95203	716.92468	-267.75287	521.44769	779.0069	-306.67996	587.992	833.27795	-271.76987	567.65656	498.55405	-321.00604				617.10468	386.50696	-294.48801	592.76355	311.34839	-327.97409	618.78314	260.34659	-330.16959	858.11176	493.1312	-408.44894				820.22797	376.77478	-436.69131	840.38989	348.21866	-506.3681	805.02814	300.22208	-531.20685	810.71619	210.07637	-719.3573	751.34332	226.66144	-773.46033				604.81927	75.644089	-411.89465				644.28461	36.087158	-479.34225	608.5188	43.926193	-303.55292	686.49261	51.259621	-281.90286				830.73633	80.514259	-703.25812	767.65955	67.507881	-670.49054			
1636	16.35	698.15912	1232.9863	-462.56079	688.59937	1489.9626	-341.75204	702.2193	1334.6633	-241.7785	531.67798	1433.9879	-311.27829	869.50299	1437.1711	-331.27325	638.59351	1022.0176	-533.40747	726.99933	1022.0537	-533.28711	568.21826	982.13165	-302.85464	822.21301	976.41821	-303.14249	864.63153	705.54468	-325.55692	891.23297	765.91406	-374.10571	849.22314	847.98883	-315.51044	570.22986	715.86591	-270.59399	520.70422	778.55658	-308.68192	586.92212	832.52179	-272.82834	567.34174	498.02579	-326.74933				616.91553	385.79559	-301.05939	592.62207	310.74368	-334.81888	618.80157	259.81512	-337.32288	858.29968	493.86102	-399.20605				820.45477	377.53833	-426.51974	840.2868	348.92944	-496.34702	804.76514	300.9379	-521.12964	809.90668	210.53918	-709.26642	750.28674	226.21198	-763.60052				604.99542	75.676872	-419.99646				644.38519	36.250877	-487.55258	608.27948	43.968208	-311.71561	686.44446	51.123955	-289.7695				830.78192	82.073486	-691.22852	767.99426	68.742683	-657.93768			
1637	16.36	696.97894	1233.4303	-462.67047	687.74133	1490.4025	-341.82303	701.77203	1335.1289	-241.97729	530.98193	1434.5323	-310.91672	868.76794	1437.6364	-332.09952	637.90259	1022.5046	-533.54803	726.29968	1022.2436	-533.50574	567.22833	982.58527	-302.91388	821.2478	977.01581	-303.26599	865.77148	706.70819	-322.20673	891.07037	766.91357	-371.56747	848.5293	849.5249	-314.49304	569.5755	714.76672	-273.52512	520.02222	778.034	-310.79315	585.90344	831.69446	-274.00168	567.07336	497.4826	-332.53973				616.77844	385.08887	-307.66278	592.52875	310.14062	-341.67169	618.8786	259.28452	-344.49258	858.42657	494.70859	-389.94821				820.56091	378.39401	-416.14978	840.12329	349.56052	-486.0098	804.39246	301.53555	-510.63669	809.08533	210.36319	-698.51556	749.27087	224.83589	-753.18585				605.21643	75.722816	-428.10953				644.52759	36.42078	-495.78143	608.07825	44.006306	-319.9071	686.42792	50.974033	-297.65372				830.88025	83.26091	-677.91833	768.36646	69.786415	-644.0401			
1638	16.37	695.85675	1233.8015	-462.84988	686.96338	1490.7576	-341.93967	701.39673	1335.4899	-242.2382	530.36041	1434.9961	-310.61279	868.10773	1437.9832	-332.98837	637.30017	1022.902	-533.79163	725.6864	1022.366	-533.80847	566.26257	982.93475	-303.09238	820.30548	977.53607	-303.46317	866.88367	707.79962	-318.94928	890.91687	768.00885	-368.76804	847.85059	851.03253	-313.54312	568.99243	713.62946	-276.53137	519.40576	777.4411	-312.99799	584.94238	830.79724	-275.27917	566.84998	496.92285	-338.36203				616.69287	384.38251	-314.28925	592.48267	309.53595	-348.52884	619.01129	258.75089	-351.6763	858.48743	495.67313	-380.71173				820.55139	379.34299	-405.61737	839.90515	350.11331	-475.38992	803.92633	302.0127	-499.75266	808.27032	209.54764	-687.12024	748.30994	222.55409	-742.21045				605.47668	75.779068	-436.23798				644.70587	36.595905	-504.03387	607.91394	44.038033	-328.13113	686.44061	50.809185	-305.56253				831.034	84.055016	-663.41785	768.77869	70.617355	-628.89569			
1639	16.38	694.79254	1234.0973	-463.09412	686.26324	1491.0259	-342.09766	701.09058	1335.7451	-242.55614	529.81073	1435.3755	-310.36179	867.51941	1438.2104	-333.93494	636.78552	1023.2097	-534.13074	725.15887	1022.4199	-534.18884	565.32538	983.17792	-303.38257	819.38953	977.97601	-303.73016	867.87994	708.867	-315.75397	890.77026	769.18536	-365.74228	847.18805	852.50513	-312.65939	568.48279	712.45612	-279.59979	518.85779	776.78021	-315.28152	584.04413	829.83197	-276.65027	566.66882	496.34537	-344.20358				616.6568	383.67297	-320.93124	592.48083	308.92725	-355.38779	619.19482	258.21112	-358.8721	858.4787	496.75156	-371.53201				820.43323	380.38522	-394.9585	839.63916	350.59021	-464.52103	803.38574	302.36914	-488.50372	807.48096	208.10191	-675.09589	747.41925	219.40045	-730.66547				605.7688	75.842834	-444.38455				644.91284	36.774864	-512.31244	607.78418	44.06205	-336.38962	686.479	50.63089	-313.50146				831.24744	84.446144	-647.82477	769.23529	71.222145	-612.61157			
1640	16.39	693.78644	1234.3157	-463.39752	685.63898	1491.2056	-342.29248	700.85052	1335.8944	-242.92551	529.33057	1435.6671	-310.15839	867.00006	1438.3195	-334.93359	636.35675	1023.4282	-534.55786	724.71552	1022.4049	-534.63977	564.42133	983.31323	-303.77597	818.50391	978.3335	-304.06262	868.69006	709.9621	-312.58582	890.63049	770.41974	-362.55161	846.5434	853.93646	-311.84033	568.04688	711.2486	-282.71957	518.37976	776.05444	-317.6301	583.2132	828.80029	-278.10522	566.52618	495.74948	-350.05453				616.66595	382.95755	-327.58298	592.51935	308.31253	-362.24725	619.42261	257.66296	-366.07849	858.39862	497.93869	-362.44333				820.21558	381.51965	-384.20871	839.33368	350.99484	-453.43689	802.79077	302.60703	-476.91791	806.73663	206.04546	-662.45819	746.61426	215.42053	-718.54077				606.0849	75.911484	-452.55029				645.1402	36.956074	-520.61774	607.68506	44.077843	-344.68274	686.53821	50.442207	-321.47467				831.52625	84.436829	-631.24121	769.742	71.596359	-595.30109			
1641	16.4	692.8382	1234.4552	-463.75412	685.08783	1491.2954	-342.51913	700.67383	1335.9387	-243.34026	528.91705	1435.8694	-309.99677	866.54626	1438.3114	-335.97849	636.01184	1023.559	-535.06451	724.35449	1022.321	-535.15387	563.55493	983.34064	-304.26324	817.65308	978.60699	-304.45575	869.27716	711.12885	-309.41577	890.49945	771.68176	-359.27625	845.91919	855.32025	-311.08432	567.68329	710.00873	-285.88202	517.97235	775.26727	-320.03146	582.453	827.70477	-279.63486	566.41736	495.13507	-355.90753				616.71545	382.23425	-334.2399	592.59277	307.69064	-369.10715	619.68701	257.10477	-373.29428	858.24646	499.22733	-353.47867				819.90894	382.74408	-373.40338	838.99731	351.33179	-442.17142	802.16254	302.73087	-465.02521	806.05707	203.4071	-649.22345	745.91077	210.67015	-705.82678				606.41595	75.982658	-460.73511				645.37909	37.138062	-528.94861	607.612	44.085472	-353.0094	686.61255	50.247261	-329.48492				831.8764	84.041489	-613.77039	770.30542	71.744812	-577.07996			
1642	16.41	691.94745	1234.5157	-464.15735	684.60718	1491.2959	-342.77222	700.55737	1335.879	-243.79401	528.56781	1435.9802	-309.87061	866.15479	1438.1897	-337.06314	635.74799	1023.6045	-535.64209	724.07336	1022.1691	-535.72369	562.73114	983.26093	-304.83456	816.84119	978.79602	-304.9043	869.63477	712.4007	-306.2276	890.38031	772.93854	-356.00467	845.31885	856.651	-310.38974	567.38971	708.73834	-289.08047	517.6355	774.42273	-322.47504	581.76624	826.54767	-281.23074	566.33704	494.50259	-361.75778				616.79889	381.50204	-340.89883	592.69537	307.06107	-375.96829	619.97943	256.53583	-380.51868	858.02319	500.60828	-344.66983				819.52472	384.05518	-362.57742	838.63928	351.60645	-430.75861	801.52197	302.74741	-452.85782	805.46088	200.22446	-635.40918	745.32397	205.21375	-692.51477				606.75293	76.054428	-468.93787				645.62036	37.319698	-537.30273	607.56	44.085304	-361.36768	686.69562	50.050701	-337.53409				832.3045	83.285873	-595.51398	770.93201	71.681458	-558.06348			
